<svg width="24" height="24" viewBox="0 0 24 24" fill="none" xmlns="http://www.w3.org/2000/svg">
    <path fill-rule="evenodd" clip-rule="evenodd" d="M4.55695 11L2.29792 4.97596C2.01754 4.22828 2.20005 3.38573 2.76469 2.82108C3.38446 2.20131 4.33128 2.04767 5.11524 2.43964L22.4472 11.1056C22.7859 11.275 23 11.6213 23 12C23 12.3788 22.7859 12.7251 22.4472 12.8945L5.11524 21.5604C4.33128 21.9524 3.38446 21.7988 2.76469 21.179C2.20005 20.6143 2.01754 19.7718 2.29792 19.0241L4.55695 13H13C13.5523 13 14 12.5523 14 12C14 11.4477 13.5523 11 13 11H4.55695Z" fill=""/>
</svg>
