<svg width="20" height="14" viewBox="0 0 20 14" fill="none" xmlns="http://www.w3.org/2000/svg">
    <path fill-rule="evenodd" clip-rule="evenodd" d="M11.7071 0.292893C11.3166 -0.0976311 10.6834 -0.0976311 10.2929 0.292893L4.29289 6.29289C3.90237 6.68342 3.90237 7.31658 4.29289 7.70711L10.2929 13.7071C10.6834 14.0976 11.3166 14.0976 11.7071 13.7071C12.0976 13.3166 12.0976 12.6834 11.7071 12.2929L7.41421 8H19C19.5523 8 20 7.55228 20 7C20 6.44772 19.5523 6 19 6H7.41421L11.7071 1.70711C12.0976 1.31658 12.0976 0.683417 11.7071 0.292893ZM0 13C0 13.5 0.447716 14 1 14C1.55229 14 2 13.5 2 13V1C2 0.5 1.55228 1.49012e-08 1 1.49012e-08C0.447714 1.49012e-08 0 0.5 0 1V13Z" fill="current"/>
</svg>
