<svg width="24" height="24" viewBox="0 0 24 24" fill="none" xmlns="http://www.w3.org/2000/svg">
    <path fill-rule="evenodd" clip-rule="evenodd" d="M3 0C1.34315 0 0 1.34315 0 3V21C0 22.6569 1.34315 24 3 24H21C22.6569 24 24 22.6569 24 21V3C24 1.34315 22.6569 0 21 0H3ZM20 6V7C19 7 18 8 18 9H17C17 8 16 7 15 6.99937V5.99937C16 6 17 5 17 4H18C18 5 19 6 20 6ZM4 14.0008V15.0017C5.32502 15.0017 6.2523 15.3301 6.91405 15.7712C7.58206 16.2166 8.03989 16.8175 8.35557 17.4489C8.67322 18.0842 8.83702 18.7316 8.91986 19.2286C8.96088 19.4747 8.981 19.6776 8.99082 19.8151C8.99572 19.8837 8.99802 19.9355 8.99909 19.9676C8.99963 19.9837 8.99985 19.9948 8.99995 20.0006L9 20.0026C9 20.0022 9 20.0017 10 20.0017C11 20.0017 11 20.0022 11 20.0026L11.0001 20.0006C11.0001 19.9974 11.0002 19.9925 11.0004 19.986C11.0005 19.9809 11.0007 19.9747 11.0009 19.9676C11.002 19.9355 11.0043 19.8837 11.0092 19.8151C11.019 19.6776 11.0391 19.4747 11.0801 19.2286C11.163 18.7316 11.3268 18.0842 11.6444 17.4489C11.9601 16.8175 12.4179 16.2166 13.0859 15.7712C13.7477 15.3301 14.675 15.0017 16 15.0017V14.0008V13.0017C14.675 13.0017 13.7477 12.6733 13.0859 12.2321C12.4179 11.7868 11.9601 11.1858 11.6444 10.5545C11.3268 9.91919 11.163 9.2718 11.0801 8.77479C11.0391 8.52865 11.019 8.32573 11.0092 8.18825C11.0043 8.11968 11.002 8.06791 11.0009 8.03576C11.0004 8.01969 11.0001 8.00858 11.0001 8.00277L11 8.00078C11 8.00122 11 8.00169 10 8.00169C9 8.00169 9 8.00122 9 8.00078L8.99995 8.00277C8.99985 8.00858 8.99963 8.01969 8.99909 8.03576C8.99802 8.06791 8.99572 8.11968 8.99082 8.18825C8.981 8.32573 8.96088 8.52865 8.91986 8.77479C8.83702 9.2718 8.67322 9.91919 8.35557 10.5545C8.03989 11.1858 7.58206 11.7868 6.91405 12.2321C6.2523 12.6733 5.32502 13.0017 4 13.0017V14.0008Z" fill="#5B94FE"/>
</svg>
