<svg width="24" height="24" viewBox="0 0 24 24" fill="none" xmlns="http://www.w3.org/2000/svg">
    <g clip-path="url(#clip0_1_315)">
        <path d="M3.75 3.125L16.25 16.875" stroke="current" stroke-linecap="round" stroke-linejoin="round"/>
        <path d="M12.1024 12.3125C11.4891 12.8701 10.6794 13.1612 9.85146 13.1218C9.02351 13.0824 8.24514 12.7157 7.68756 12.1023C7.12998 11.489 6.83888 10.6793 6.87829 9.8514C6.91771 9.02345 7.2844 8.24508 7.89772 7.6875" stroke="current" stroke-linecap="round" stroke-linejoin="round"/>
        <path d="M10.5883 6.93048C11.2526 7.05771 11.8578 7.39708 12.3128 7.89761C12.7678 8.39814 13.0482 9.0328 13.1117 9.70626" stroke="current" stroke-linecap="round" stroke-linejoin="round"/>
        <path d="M16.2977 13.2109C18.0008 11.6859 18.75 10 18.75 10C18.75 10 16.25 4.37501 10 4.37501C9.45879 4.37427 8.91842 4.41817 8.3844 4.50626" stroke="current" stroke-linecap="round" stroke-linejoin="round"/>
        <path d="M5.78125 5.35938C2.59609 6.97187 1.25 10 1.25 10C1.25 10 3.75 15.625 10 15.625C11.4645 15.6365 12.9106 15.2991 14.2188 14.6406" stroke="current" stroke-linecap="round" stroke-linejoin="round"/>
    </g>
    <defs>
        <clipPath id="clip0_1_315">
            <rect width="20" height="20" fill="white"/>
        </clipPath>
    </defs>
</svg>
