<svg width="19" height="18" viewBox="0 0 19 18" fill="none" xmlns="http://www.w3.org/2000/svg">
    <path fill-rule="evenodd" clip-rule="evenodd" d="M10.4143 0.833496C9.7727 0.833496 9.17353 1.15416 8.81763 1.68802L7.56479 3.56726C7.53435 3.61292 7.49948 3.65547 7.46067 3.69427L5.8096 5.34534C5.43554 5.71941 5.15956 6.17322 4.99822 6.66683H1.66663C1.11434 6.66683 0.666626 7.11454 0.666626 7.66683V16.5002C0.666626 17.0524 1.11434 17.5002 1.66663 17.5002H5.49996C5.87841 17.5002 6.20776 17.2899 6.37759 16.9799C6.89448 17.3093 7.50826 17.5002 8.16663 17.5002H13.5247C14.3605 17.5002 15.1411 17.0824 15.6048 16.3869L16.5782 14.9267C16.7744 14.6324 16.9059 14.2999 16.9641 13.951L17.2923 11.9815C17.3022 11.9225 17.3184 11.8646 17.3406 11.809L17.9878 10.191C18.1059 9.8957 18.1666 9.58057 18.1666 9.26253V8.3335C18.1666 6.95278 17.0473 5.8335 15.6666 5.8335H11.4061L12.2169 3.81778C12.294 3.58659 12.3333 3.34449 12.3333 3.1008V2.75248C12.3333 1.69265 11.4741 0.833496 10.4143 0.833496ZM6.49996 14.1668C6.49996 15.0873 7.24615 15.8335 8.16663 15.8335H13.5247C13.8033 15.8335 14.0635 15.6942 14.218 15.4624L15.1915 14.0022C15.2569 13.9041 15.3007 13.7933 15.3201 13.677L15.6483 11.7075C15.6779 11.5303 15.7264 11.3569 15.7931 11.1901L16.4404 9.57202C16.4797 9.47358 16.5 9.36854 16.5 9.26253V8.3335C16.5 7.87326 16.1269 7.50016 15.6666 7.50016H10.5251C9.83011 7.50016 9.34705 6.80875 9.58611 6.15619L10.6358 3.29073C10.6562 3.22949 10.6666 3.16535 10.6666 3.1008V2.75248C10.6666 2.61313 10.5537 2.50016 10.4143 2.50016C10.33 2.50016 10.2512 2.54232 10.2044 2.61252L8.95154 4.49176C8.86022 4.62874 8.7556 4.75637 8.63919 4.87278L6.98811 6.52385C6.67555 6.83641 6.49996 7.26033 6.49996 7.70236V14.1668ZM4.83329 8.3335H2.33329V15.8335H4.83329V14.1668V8.3335Z" fill="current"/>
</svg>
