<svg width="25" height="24" viewBox="0 0 25 24" fill="none" xmlns="http://www.w3.org/2000/svg">
    <style>
        @keyframes fade {
        0%, 100% { opacity: 0.1; }
        50% { opacity: 1; }
        }

        .spinner rect {
        animation: fade 2s linear infinite;
        fill: current;
        }

        .spinner rect:nth-child(1) {
        animation-delay: 0s;
        }

        .spinner rect:nth-child(2) {
        animation-delay: 0.1667s;
        }

        .spinner rect:nth-child(3) {
        animation-delay: 0.3334s;
        }

        .spinner rect:nth-child(4) {
        animation-delay: 0.5s;
        }

        .spinner rect:nth-child(5) {
        animation-delay: 0.6667s;
        }

        .spinner rect:nth-child(6) {
        animation-delay: 0.8334s;
        }

        .spinner rect:nth-child(7) {
        animation-delay: 1s;
        }

        .spinner rect:nth-child(8) {
        animation-delay: 1.1667s;
        }

        .spinner rect:nth-child(9) {
        animation-delay: 1.3334s;
        }

        .spinner rect:nth-child(10) {
        animation-delay: 1.5s;
        }

        .spinner rect:nth-child(11) {
        animation-delay: 1.6667s;
        }

        .spinner rect:nth-child(12) {
        animation-delay: 1.8334s;
        }
    </style>
    <g class="spinner">
        <rect x="11.5" width="3" height="6" rx="1.5" />
        <rect x="10.7988" y="6.05273" width="3" height="6" rx="1.5" transform="rotate(150 10.7988 6.05273)" />
        <rect x="8.05371" y="7.69922" width="3" height="6" rx="1.5" transform="rotate(120 8.05371 7.69922)" />
        <rect x="6.5" y="10.5" width="3" height="6" rx="1.5" transform="rotate(90 6.5 10.5)" />
        <rect x="6.55371" y="13.6992" width="3" height="6" rx="1.5" transform="rotate(60 6.55371 13.6992)" />
        <rect x="8.20117" y="16.4473" width="3" height="6" rx="1.5" transform="rotate(30 8.20117 16.4473)" />
        <rect x="11.5" y="18" width="3" height="6" rx="1.5" />
        <rect x="19.7988" y="21.6445" width="3" height="6" rx="1.5" transform="rotate(150 19.7988 21.6445)" />
        <rect x="23.6426" y="16.6992" width="3" height="6" rx="1.5" transform="rotate(120 23.6426 16.6992)" />
        <rect x="24.5" y="10.5" width="3" height="6" rx="1.5" transform="rotate(90 24.5 10.5)" />
        <rect x="22.1426" y="4.69922" width="3" height="6" rx="1.5" transform="rotate(60 22.1426 4.69922)" />
        <rect x="17.2012" y="0.855469" width="3" height="6" rx="1.5" transform="rotate(30 17.2012 0.855469)" />
    </g>
</svg>

