<svg width="18" height="18" viewBox="0 0 18 18" fill="none" xmlns="http://www.w3.org/2000/svg">
    <path stroke="current" d="M9 17.9995C6.5 17.9995 4.375 17.1245 2.625 15.3745C0.875 13.6245 0 11.4995 0 8.99952C0 6.49952 0.875 4.37452 2.625 2.62452C3.29488 1.95464 4.0197 1.41298 4.79947 0.999518C5.73799 0.50189 6.77544 0.189204 7.8356 0.0605939C8.74576 -0.0498181 9.13987 1.17589 8.7125 1.98702C8.30417 2.76202 8.1 3.59952 8.1 4.49952C8.1 5.99952 8.625 7.27452 9.675 8.32452C10.725 9.37452 12 9.89952 13.5 9.89952C14.4167 9.89952 15.2583 9.69535 16.025 9.28702C16.831 8.85773 18.0492 9.24732 17.9404 10.154C17.8217 11.1433 17.5429 12.1129 17.1029 12.9995C16.6779 13.8559 16.102 14.6476 15.375 15.3745C13.625 17.1245 11.5 17.9995 9 17.9995ZM9 15.9995C10.4667 15.9995 11.7833 15.5954 12.95 14.787C14.1167 13.9787 14.9667 12.9245 15.5 11.6245C15.1667 11.7079 14.8333 11.7745 14.5 11.8245C14.1667 11.8745 13.8333 11.8995 13.5 11.8995C11.45 11.8995 9.70417 11.1787 8.2625 9.73702C6.82083 8.29535 6.1 6.54952 6.1 4.49952C6.1 4.16618 6.125 3.83285 6.175 3.49952C6.225 3.16619 6.29167 2.83285 6.375 2.49952C5.075 3.03285 4.02083 3.88285 3.2125 5.04952C2.40417 6.21619 2 7.53285 2 8.99952C2 10.9329 2.68333 12.5829 4.05 13.9495C5.41667 15.3162 7.06667 15.9995 9 15.9995Z" fill="current"/>
</svg>

