<svg width="24" height="24" viewBox="0 0 24 24" fill="none" xmlns="http://www.w3.org/2000/svg">
    <path fill-rule="evenodd" clip-rule="evenodd" d="M13.2915 2.18515C12.7109 1.20261 11.2893 1.20261 10.7087 2.18515L0.337361 19.7366C-0.253503 20.7365 0.467301 21.9997 1.62875 21.9997H22.3714C23.5329 21.9997 24.2537 20.7366 23.6628 19.7366L13.2915 2.18515ZM11.0001 7.99973C11.0001 7.44744 11.4478 6.99973 12.0001 6.99973C12.5524 6.99973 13.0001 7.44744 13.0001 7.99973V13.9997C13.0001 14.552 12.5524 14.9997 12.0001 14.9997C11.4478 14.9997 11.0001 14.552 11.0001 13.9997V7.99973ZM11.0001 17.9997C11.0001 17.4474 11.4478 16.9997 12.0001 16.9997C12.5524 16.9997 13.0001 17.4474 13.0001 17.9997C13.0001 18.552 12.5524 18.9997 12.0001 18.9997C11.4478 18.9997 11.0001 18.552 11.0001 17.9997Z" fill="current"/>
</svg>
